#!OML:ASF F:\VICON\USERDATA\INSTALL\Justin_Nancy\Justin_Nancy.ASF
:FULLY-SPECIFIED
:DEGREES
81
root -9.06309 15.2098 -0.297333 -19.968 38.8722 -19.284
lowerback 22.71 1.21908 6.33235
upperback 6.63871 4.06996 9.5378
thorax -5.66145 2.09873 5.71824
lowerneck -15.0955 -0.581289 -5.17191
upperneck 14.8366 0.267069 0.791058
head 7.02372 -0.0850967 1.13077
rclavicle 2.42517e-014 7.79236e-014
rhumerus -40.5295 16.473 -83.2194
rradius 87.5442
rwrist -12.9725
rhand -14.6745 25.1891
rfingers 7.12502
rthumb 11.4787 -4.47666
lclavicle 2.42517e-014 7.79236e-014
lhumerus -49.9494 -10.858 99.4654
lradius 101.604
lwrist 25.1352
lhand -21.7694 7.36893
lfingers 7.12502
lthumb 4.63142 37.2983
rfemur -10.0166 -7.35516 12.8773
rtibia 47.9029
rfoot -17.4803 -7.55065
rtoes -33.6638
lfemur -46.3145 11.5064 -23.5051
ltibia 83.0402
lfoot -9.81718 -6.00376
ltoes 2.18938
82
root -8.94701 15.1832 0.0161157 -19.9644 39.4524 -19.8179
lowerback 22.5964 1.53153 6.4779
upperback 6.51877 4.53536 9.73357
thorax -5.77045 2.32819 5.72648
lowerneck -15.1165 -0.680426 -5.23018
upperneck 14.8031 0.158702 0.726945
head 7.02035 -0.145339 1.10806
rclavicle -4.17448e-014 3.97569e-014
rhumerus -39.8009 17.4182 -83.4118
rradius 87.8544
rwrist -11.8721
rhand -15.1327 25.1339
rfingers 7.12502
rthumb 11.0367 -4.55598
lclavicle -4.17448e-014 3.97569e-014
lhumerus -50.171 -9.95405 100.125
lradius 99.6578
lwrist 25.8448
lhand -21.3791 7.98833
lfingers 7.12502
lthumb 5.0083 37.9091
rfemur -8.85682 -8.26017 13.2475
rtibia 47.9583
rfoot -19.0223 -7.59863
rtoes -32.8362
lfemur -47.5886 12.1686 -24.8527
ltibia 81.355
lfoot -10.5395 -4.96688
ltoes -1.82048
83
root -8.81898 15.1576 0.321959 -19.8 39.7968 -20.032
lowerback 22.655 1.98082 6.6726
upperback 6.27046 5.19455 9.68102
thorax -6.09359 2.64012 5.3674
lowerneck -14.7205 -0.79429 -4.85586
upperneck 14.6107 -0.0677763 0.518793
head 6.89616 -0.248042 0.955516
rclavicle -6.20208e-014 -3.18055e-015
rhumerus -39.4832 17.6743 -83.9477
rradius 88.4002
rwrist -10.0413
rhand -15.4199 25.0298
rfingers 7.12502
rthumb 10.7597 -4.6746
lclavicle -6.20208e-014 -3.18055e-015
lhumerus -51.0753 -9.3719 100.532
lradius 98.2711
lwrist 26.9953
lhand -22.6099 8.79743
lfingers 7.12502
lthumb 3.81979 38.7429
rfemur -7.67084 -9.02166 13.3378
rtibia 47.8257
rfoot -20.514 -7.53743
rtoes -32.5046
lfemur -48.7433 12.8347 -26.3624
ltibia 79.6036
lfoot -11.1607 -4.06235
ltoes -5.58501
84
root -8.67643 15.153 0.61511 -19.607 39.6796 -20.382
lowerback 22.4375 2.60744 6.9177
upperback 6.20409 6.0598 9.80446
thorax -6.09082 3.061 5.12957
lowerneck -14.7961 -1.01654 -4.85257
upperneck 14.613 -0.372208 0.556172
head 6.91841 -0.390614 0.936033
rclavicle 3.29983e-014 9.54166e-015
rhumerus -38.9742 17.7125 -84.1385
rradius 89.3025
rwrist -8.94356
rhand -14.5765 25.3085
rfingers 7.12502
rthumb 11.5732 -4.35194
lclavicle 3.29983e-014 9.54166e-015
lhumerus -51.9526 -8.85103 101.017
lradius 97.3253
lwrist 27.7503
lhand -24.498 9.89846
lfingers 7.12502
lthumb 1.99644 39.8689
rfemur -6.57973 -9.5756 13.7298
rtibia 47.3935
rfoot -21.1748 -7.8731
rtoes -34.0041
lfemur -49.8248 13.8501 -27.6479
ltibia 77.6632
lfoot -11.43 -3.69486
ltoes -4.39587
85
root -8.52194 15.1634 0.912683 -19.4986 39.8889 -20.727
lowerback 22.2789 3.12925 7.1903
upperback 6.12741 6.7963 9.85058
thorax -6.10481 3.41736 4.82804
lowerneck -15.0347 -1.26405 -4.9161
upperneck 14.6634 -0.693714 0.633701
head 6.98535 -0.542219 0.937986
rclavicle 6.32135e-014 8.74653e-014
rhumerus -38.4621 17.8618 -84.4127
rradius 90.3049
rwrist -9.20534
rhand -14.3397 25.7435
rfingers 7.12502
rthumb 11.8015 -3.90397
lclavicle 6.32135e-014 8.74653e-014
lhumerus -53.0062 -8.47835 101.524
lradius 96.6936
lwrist 27.5006
lhand -26.0969 10.5474
lfingers 7.12502
lthumb 0.4522 40.5267
rfemur -5.15576 -10.1667 13.9821
rtibia 46.7143
rfoot -21.5873 -7.81834
rtoes -34.5922
lfemur -50.3893 14.8424 -29.2123
ltibia 75.3209
lfoot -11.3435 -3.95857
ltoes -2.0031
86
root -8.3608 15.2044 1.22903 -20.4214 40.8121 -21.6041
lowerback 22.8472 3.17917 7.76654
upperback 5.94061 7.09177 9.7716
thorax -6.54006 3.54017 4.30382
lowerneck -14.9386 -1.39366 -4.84073
upperneck 14.5967 -0.947447 0.941646
head 6.9544 -0.631436 0.999757
rclavicle 9.54166e-015 1.59028e-015
rhumerus -38.3598 18.1529 -85.2951
rradius 91.7399
rwrist -10.1485
rhand -15.016 25.4553
rfingers 7.12502
rthumb 11.1493 -4.22853
lclavicle 9.54166e-015 1.59028e-015
lhumerus -54.5406 -8.11789 101.615
lradius 96.5139
lwrist 26.967
lhand -26.6489 10.6499
lfingers 7.12502
lthumb -0.0810257 40.6296
rfemur -2.59265 -10.752 14.3901
rtibia 45.6784
rfoot -22.1658 -7.82032
rtoes -34.2007
lfemur -49.713 15.2486 -30.2557
ltibia 72.7807
lfoot -11.0568 -4.77788
ltoes -0.417178
87
root -8.18165 15.246 1.51955 -21.2596 41.3613 -22.646
lowerback 23.1266 3.29724 8.56812
upperback 5.8374 7.49632 9.805
thorax -6.71551 3.71997 3.76635
lowerneck -14.8961 -1.53204 -4.79841
upperneck 14.5249 -1.20235 1.25046
head 6.93214 -0.723228 1.0669
rclavicle -1.16488e-013 1.59028e-015
rhumerus -37.9604 18.4947 -85.6931
rradius 93.2398
rwrist -11.0574
rhand -14.7157 25.1108
rfingers 7.12502
rthumb 11.439 -4.55709
lclavicle -1.16488e-013 1.59028e-015
lhumerus -56.0488 -7.80493 101.731
lradius 96.7265
lwrist 26.5633
lhand -25.972 9.70117
lfingers 7.12502
lthumb 0.572825 39.6801
rfemur -0.320704 -11.1209 14.9373
rtibia 44.4185
rfoot -22.2327 -7.34983
rtoes -34.2723
lfemur -49.2439 15.5809 -31.0452
ltibia 70.3134
lfoot -10.4041 -5.41315
ltoes -0.868515
